<svg xmlns="http://www.w3.org/2000/svg" viewBox="0 0 640 48" preserveAspectRatio="none"><defs><linearGradient id="bz-bg" x1="0" y1="0" x2="0" y2="1"> <stop offset="0" stop-color="#160e1e"/><stop offset="1" stop-color="#2b1a30"/></linearGradient></defs> <rect width="640" height="48" fill="url(#bz-bg)"/> <!-- guirnaldas de lamparas colgantes --> <path d="M256 4 C340 12 420 2 500 10 C560 15 600 8 640 12" stroke="#4d3a52" stroke-width="1.2" fill="none"/> <g> <g transform="translate(310,10)"><rect x="-1" y="-3" width="2" height="3" fill="#8a6a34"/> <path d="M-5 0 C-5 -3 5 -3 5 0 L4 9 C4 12 -4 12 -4 9 Z" fill="#e8944f"/> <ellipse cx="0" cy="5" rx="6" ry="7" fill="#e8944f" opacity=".35"/> <path d="M-2 12 L0 15 L2 12" stroke="#8a6a34" stroke-width="1" fill="none"/></g> <g transform="translate(388,8)"><rect x="-1" y="-3" width="2" height="3" fill="#8a6a34"/> <circle cy="6" r="6" fill="#5fb2d9"/><circle cy="6" r="8.5" fill="#5fb2d9" opacity=".3"/> <path d="M-4 2 H4 M-5 6 H5 M-4 10 H4" stroke="#2b5c74" stroke-width="1"/></g> <g transform="translate(462,12)"><rect x="-1" y="-3" width="2" height="3" fill="#8a6a34"/> <path d="M-5 0 H5 L3 10 H-3 Z" fill="#d94f6e"/> <ellipse cx="0" cy="5" rx="7" ry="8" fill="#d94f6e" opacity=".3"/> <circle cy="12" r="1.2" fill="#e8c66a"/></g> <g transform="translate(540,10)"><rect x="-1" y="-3" width="2" height="3" fill="#8a6a34"/> <path d="M0 0 L5 5 L0 13 L-5 5 Z" fill="#8ad95f"/> <path d="M0 0 L5 5 L0 13 L-5 5 Z" fill="#8ad95f" opacity=".35" transform="scale(1.5)"/></g> <g transform="translate(608,13)"><rect x="-1" y="-3" width="2" height="3" fill="#8a6a34"/> <path d="M-4 0 C-6 4 -6 8 0 11 C6 8 6 4 4 0 Z" fill="#e8c66a"/> <ellipse cx="0" cy="5" rx="7" ry="8" fill="#e8c66a" opacity=".3"/></g> </g> <!-- puestos abajo: toldos a rayas --> <g> <path d="M300 48 V42 H360 V48 Z" fill="#33202b"/> <path d="M296 42 L302 36 H358 L364 42 Z" fill="#a8442e"/> <path d="M310 42 L314 36 H322 L319 42 Z M330 42 L334 36 H342 L339 42 Z" fill="#e8dcc9"/> <path d="M480 48 V43 H540 V48 Z" fill="#33202b"/> <path d="M476 43 L482 37 H538 L544 43 Z" fill="#2f5c74"/> <path d="M490 43 L494 37 H502 L499 43 Z M510 43 L514 37 H522 L519 43 Z" fill="#e8dcc9"/> </g></svg>