<svg xmlns="http://www.w3.org/2000/svg" viewBox="0 0 640 48" preserveAspectRatio="none"><defs> <linearGradient id="bc-sky" x1="0" y1="0" x2="0" y2="1"> <stop offset="0" stop-color="#0a1224"/><stop offset="1" stop-color="#14263d"/></linearGradient> <linearGradient id="bc-beam" x1="1" y1="0" x2="0" y2="0"> <stop offset="0" stop-color="#ffe9a8" stop-opacity=".55"/> <stop offset="1" stop-color="#ffe9a8" stop-opacity="0"/></linearGradient> </defs> <rect width="640" height="48" fill="url(#bc-sky)"/> <g fill="#e8eef6" opacity=".8"> <circle cx="300" cy="8" r="1"/><circle cx="380" cy="5" r="1"/><circle cx="452" cy="10" r=".9"/> <circle cx="330" cy="16" r=".8"/> </g> <path d="M574 14 L300 2 L300 22 Z" fill="url(#bc-beam)"/> <rect y="40" width="640" height="8" fill="#0a1830"/> <g stroke="#3d5a7a" stroke-width="1" opacity=".7"> <path d="M256 43 H360 M380 45 H470 M490 43 H580 M300 46 H420 M520 46 H640"/> </g> <g> <path d="M560 40 L566 12 H582 L588 40 Z" fill="#c9d4de"/> <path d="M560 40 L566 12 H574 V40 Z" fill="#a8b6c4"/> <g fill="#b8422f"> <path d="M563.5 24 H584.5 L583 18 H565 Z"/><path d="M561 36 H587 L585.5 30 H562.5 Z"/> </g> <rect x="564" y="8" width="20" height="6" rx="1" fill="#2b3948"/> <rect x="568" y="9" width="12" height="4" fill="#ffe9a8"/> <path d="M562 8 H586 L574 2 Z" fill="#2b3948"/> <rect x="556" y="40" width="36" height="3" fill="#22303f"/> </g> <g fill="#0e2036"> <path d="M600 40 C606 34 614 36 618 40 Z M280 40 C286 35 294 36 298 40 Z"/> </g></svg>