<svg xmlns="http://www.w3.org/2000/svg" viewBox="0 0 640 48" preserveAspectRatio="none"><rect width="640" height="48" fill="#d6d4cf"/> <g fill="#bfbcb5"> <rect x="256" y="0" width="60" height="48"/><rect x="332" y="0" width="60" height="48"/> <rect x="408" y="0" width="60" height="48"/><rect x="484" y="0" width="60" height="48"/> <rect x="560" y="0" width="60" height="48"/> </g> <g fill="#a5a29a"> <rect x="256" y="18" width="60" height="6"/><rect x="332" y="26" width="60" height="6"/> <rect x="408" y="14" width="60" height="6"/><rect x="484" y="30" width="60" height="6"/> <rect x="560" y="20" width="60" height="6"/> </g> <g stroke="#8f8c84" stroke-width="1.4"> <path d="M316 0 V48 M392 0 V48 M468 0 V48 M544 0 V48 M620 0 V48"/> </g> <g fill="#8f8c84" opacity=".6"> <circle cx="286" cy="8" r="1.6"/><circle cx="362" cy="8" r="1.6"/><circle cx="438" cy="8" r="1.6"/> <circle cx="514" cy="8" r="1.6"/><circle cx="590" cy="8" r="1.6"/> </g></svg>