<svg xmlns="http://www.w3.org/2000/svg" viewBox="0 0 640 48" preserveAspectRatio="none"><rect width="640" height="48" fill="#0c332c"/> <g fill="#1a6b58" opacity=".85"> <ellipse cx="300" cy="18" rx="44" ry="14"/><ellipse cx="390" cy="34" rx="52" ry="16"/> <ellipse cx="486" cy="14" rx="46" ry="13"/><ellipse cx="570" cy="32" rx="50" ry="15"/> </g> <g fill="#3fbf9a" opacity=".55"> <ellipse cx="330" cy="26" rx="26" ry="9"/><ellipse cx="440" cy="16" rx="24" ry="8"/> <ellipse cx="530" cy="30" rx="28" ry="9"/><ellipse cx="612" cy="18" rx="22" ry="8"/> </g> <g fill="#c97a3f" opacity=".5"> <ellipse cx="356" cy="38" rx="18" ry="6"/><ellipse cx="468" cy="40" rx="16" ry="5"/> <ellipse cx="592" cy="8" rx="14" ry="5"/> </g> <g stroke="#0a2a24" stroke-width="1" opacity=".5"> <path d="M256 0 V48 M320 0 V48 M384 0 V48 M448 0 V48 M512 0 V48 M576 0 V48"/> </g></svg>