<svg xmlns="http://www.w3.org/2000/svg" viewBox="0 0 640 48" preserveAspectRatio="none"><defs> <linearGradient id="lk-bg" x1="0" y1="0" x2="0" y2="1"> <stop offset="0" stop-color="#0c2e1c"/><stop offset="1" stop-color="#155232"/></linearGradient> </defs> <rect width="640" height="48" fill="url(#lk-bg)"/> <!-- arcoiris que cae en la olla --> <g fill="none" stroke-linecap="round"> <path d="M340 48 C380 2 520 2 560 40" stroke="#d94f3d" stroke-width="4"/> <path d="M340 48 C380 8 516 8 556 42" stroke="#e8a23d" stroke-width="4" transform="translate(0,4)"/> <path d="M340 48 C382 14 512 14 552 44" stroke="#e8d23d" stroke-width="4" transform="translate(0,8)"/> </g> <g> <path d="M544 34 C544 42 552 46 562 46 C572 46 580 42 580 34 Z" fill="#141017"/> <ellipse cx="562" cy="34" rx="18" ry="4" fill="#241c2b"/> <g fill="#ffd347"> <circle cx="554" cy="32" r="2.6"/><circle cx="562" cy="30" r="2.8"/><circle cx="570" cy="32" r="2.6"/> <circle cx="558" cy="28" r="2.2"/><circle cx="566" cy="28" r="2.2"/> </g> </g> <g fill="#2f8a4e"> <g transform="translate(292,20)"><path d="M0 0 C-4 -6 2 -10 3 -4 C4 -10 10 -6 6 0 C10 2 6 8 3 4 C0 8 -4 2 0 0 Z"/></g> <g transform="translate(400,36) scale(.8)"><path d="M0 0 C-4 -6 2 -10 3 -4 C4 -10 10 -6 6 0 C10 2 6 8 3 4 C0 8 -4 2 0 0 Z"/></g> <g transform="translate(470,14) scale(.7)"><path d="M0 0 C-4 -6 2 -10 3 -4 C4 -10 10 -6 6 0 C10 2 6 8 3 4 C0 8 -4 2 0 0 Z"/></g> <g transform="translate(614,20) scale(.75)"><path d="M0 0 C-4 -6 2 -10 3 -4 C4 -10 10 -6 6 0 C10 2 6 8 3 4 C0 8 -4 2 0 0 Z"/></g> </g> <g fill="#ffd347" opacity=".7"> <circle cx="380" cy="10" r="1"/><circle cx="440" cy="24" r="1"/><circle cx="520" cy="12" r="1"/> <circle cx="600" cy="38" r="1"/> </g></svg>