<svg xmlns="http://www.w3.org/2000/svg" viewBox="0 0 640 48" preserveAspectRatio="none"><rect width="640" height="48" fill="#f4f2ee"/> <g stroke="#c9c3b8" stroke-width="1.6" fill="none" opacity=".9"> <path d="M240 44 C280 34 300 40 340 28 C380 16 410 22 450 12 C490 2 530 8 570 2"/> <path d="M256 12 C296 20 320 14 356 24 C392 34 420 28 460 38 C500 48 540 42 580 46"/> </g> <g stroke="#a8a196" stroke-width=".9" fill="none" opacity=".8"> <path d="M300 46 C330 38 348 42 378 32 M420 6 C450 14 470 10 500 18 M520 40 C550 32 570 36 600 28"/> </g> <g stroke="#8f887c" stroke-width=".6" fill="none" opacity=".55"> <path d="M268 30 C298 24 316 28 344 20 M462 26 C492 20 510 24 540 16"/> </g></svg>