<svg xmlns="http://www.w3.org/2000/svg" viewBox="0 0 640 48" preserveAspectRatio="none"><defs><linearGradient id="wm-sky" x1="0" y1="0" x2="0" y2="1"> <stop offset="0" stop-color="#dff0f7"/><stop offset="1" stop-color="#f2f8fb"/></linearGradient></defs> <rect width="640" height="48" fill="url(#wm-sky)"/> <g fill="#fff" opacity=".9"> <ellipse cx="330" cy="10" rx="26" ry="5"/><ellipse cx="470" cy="7" rx="20" ry="4"/> </g> <!-- campos de tulipanes en franjas --> <path d="M0 34 L640 30 L640 48 L0 48 Z" fill="#4d8a3d"/> <path d="M0 38 L640 34 L640 40 L0 44 Z" fill="#d94f6e"/> <path d="M0 44 L640 40 L640 45 L0 48 Z" fill="#e8b23d"/> <g fill="#7a3b8a" opacity=".9"><path d="M0 47 L640 44 L640 48 L0 48 Z"/></g> <!-- molino --> <g transform="translate(560,26)"> <path d="M-9 16 L-5 -6 H5 L9 16 Z" fill="#8a5c3d"/> <path d="M-9 16 L-5 -6 H0 V16 Z" fill="#6d4530"/> <path d="M-7 -6 H7 L0 -13 Z" fill="#4d3322"/> <rect x="-2" y="8" width="4" height="8" fill="#2b1c10"/> <g stroke="#3a2a1c" stroke-width="1.8"> <path d="M0 -10 L11 -21 M0 -10 L11 1 M0 -10 L-11 -21 M0 -10 L-11 1"/> </g> <g fill="none" stroke="#3a2a1c" stroke-width="1"> <path d="M1.5 -11.5 L9 -19 L11.5 -16.5 L4 -9 Z M-1.5 -8.5 L-9 -1 L-11.5 -3.5 L-4 -11 Z"/> </g> <circle cx="0" cy="-10" r="1.6" fill="#2b1c10"/> </g></svg>